<?xml version="1.0" encoding="UTF-8"?>
<svg id="Capa_1" data-name="Capa 1" xmlns="http://www.w3.org/2000/svg" viewBox="0 0 921.28 734.72">
  <defs>
    <style>
      .cls-1 {
        fill: #bfbfbf;
        stroke: #000;
        stroke-miterlimit: 10;
        stroke-width: 5px;
      }
    </style>
  </defs>
  <path class="cls-1" d="m234.43,497.28c-49.18,39.79-31.68,114.13-21.29,150.9,2.8,9.91,3.77,22.17-25.62,17.61-25.56-3.96-53.56-8.9-64.44-11.7-1.21-.31-10.96-2.32-10.46-13.73.8-18.21-9.71-48-21.28-37.67,0,0-4.56-1.27-5.96-3.33-3.26-4.79-.25-11.03,1.64-10.79,1.49.19,3.23-3.51,2.97-5.51-1.39-11.04-9.84-32.16-16.73-56.87-5.26-18.87-4.76-27.06,16.47-45.23l144.7,16.31"/>
</svg>