<?xml version="1.0" encoding="utf-8"?>
<!-- Generator: Adobe Illustrator 27.2.0, SVG Export Plug-In . SVG Version: 6.00 Build 0)  -->
<svg version="1.1" id="Capa_1" xmlns="http://www.w3.org/2000/svg" xmlns:xlink="http://www.w3.org/1999/xlink" x="0px" y="0px"
	 viewBox="0 0 863.9 672.6" style="enable-background:new 0 0 863.9 672.6;" xml:space="preserve">
<style type="text/css">
	.st0{fill:#BFBFBF;stroke:#000000;stroke-width:5;stroke-miterlimit:10;}
	.st1{display:none;opacity:0.5;fill:#FFFFFF;}
	.st2{display:none;opacity:0.3;}
	.st3{display:none;}
	.st4{display:none;fill:#BFBFBF;stroke:#000000;stroke-width:5;stroke-miterlimit:10;}
	.st5{display:none;stroke:#000000;stroke-width:5;stroke-miterlimit:10;}
	.st6{display:none;fill:#AD2300;stroke:#000000;stroke-width:5;stroke-miterlimit:10;}
	.st7{display:none;fill:#AA0000;}
	.st8{display:none;fill:#FF2300;}
</style>
<g>
	<path class="st0" d="M218.7,485.3c-49.2,39.8-31.7,114.1-21.3,150.9c2.8,9.9,3.8,22.2-25.6,17.6c-25.6-4-53.6-8.9-64.4-11.7
		c-1.2-0.3-11-2.3-10.5-13.7c0.8-18.2-9.7-48-21.3-37.7c0,0-4.6-1.3-6-3.3c-3.3-4.8-0.3-11,1.6-10.8c1.5,0.2,3.2-3.5,3-5.5
		c-1.4-11-9.8-32.2-16.7-56.9c-5.3-18.9-4.8-27.1,16.5-45.2L218.7,485.3"/>
	<path class="st1" d="M60.6,495.6c0,0,126.3,15.2,129.3,15.4c0,0,8.8-17.5,15.4-21.2c0,0-124.2-14.8-128.8-14.8
		C76.4,475.1,62.4,485.2,60.6,495.6z"/>
	<path class="st2" d="M60.5,500.8c18.7,3.4,127.2,15.8,127.2,15.8c-14.2,34.7-7.2,72.1-7.2,72.1c-39.7-1.6-98.9-11.9-98.9-11.9
		C80.5,559.4,60.5,500.8,60.5,500.8z"/>
	<path class="st3" d="M72.7,580.4c58.7,9.4,108.4,13.1,108.4,13.1c0.3,1.2,0.9,5,0.9,5c-9.8,2.8-91.6-9-91.6-9
		c-3.9-5.2-11.6-6.5-15-3.8c0,0-1.8,0.2-2.8-1.9L72.7,580.4z"/>
	<path class="st2" d="M95.3,595.2c0,0,6.9,10.1,8.6,32c0.1,1.4-1,7.8,6.7,9.4c3.3,0.7,66.2,11.2,68.8,11.3c5.9,0.2,16,1.8,10.7-11.2
		c-1.6-3.8-5.5-20.7-7.5-32.6C182.6,604.2,183.8,607.8,95.3,595.2z"/>
	<path class="st4" d="M526.4,651.1c3.2-9.4,4.7-24.5,3.5-48.4c0,0-135.2-10.6-138.6-10.3c-0.3,17-0.7,42.2-0.9,49.4
		c0,2.4,0.1,4.7,0.4,6.9c1.5,11,7.9,17.5,22.4,17.9c22.1,0.6,27.1-4.5,51.1-4.4c11.7,0,28.1,4.1,40.4,4.4
		C512.6,666.9,521.4,665.9,526.4,651.1"/>
	<path class="st3" d="M526.8,649.7c-4.7,14.8-13.5,16-21.4,15.9c-12.3-0.1-28.8-3.9-40.5-3.7c-24,0.4-28.9,5.5-51,5.3
		c-14.6-0.1-21.4-9.9-23.1-20.9c21.9,1.1,132.7,3.6,135.5,3.3C526.5,649.6,526.7,649.6,526.8,649.7z"/>
	<path class="st3" d="M337.3,564.8"/>
	<path class="st5" d="M507.7,601.1c-3.4,14.7-9.9,43.9-12.3,53.3"/>
	<polygon class="st1" points="397.8,600.5 397.7,606.1 497,613.5 498.3,607.9 	"/>
	<polygon class="st1" points="513.2,609.1 512,614.6 523.1,615.6 523,609.9 	"/>
	<path class="st2" d="M397.3,610c-0.1,24.5-0.5,31.2-0.2,31.3c0,0,89.5,3.7,91.9,3.9l7.2-28.4C449.2,613.6,397.3,610,397.3,610z"/>
	<path class="st2" d="M511,617.8l-5.7,27.7l15.3,0.3c0,0,3.9-20.8,2.4-27.2L511,617.8z"/>
	<path class="st4" d="M861.3,565.6c0,0.8-0.1,1.7-0.2,2.5c-0.4,3.9-1.2,10.6-2.8,18.2c-0.3,1.3-0.5,2.5-0.8,3.5
		c-2.1,8.1-5.6,10.6-20.6,20.3c-5.8,3.7-8.3,7.2-8.1,19c0.3,21.9-43.1,17.9-71.2,16.4c-12-0.7-12.4,8.4-25.4,8.1
		c-7.9-0.1-8.4-3.2-8.3-18.6c0.1-9.5,6.4-61.5,0.1-101c0,0,83.7,9.5,91.8,10.2c32.9,2.9,29.2-12.9,25.4-17.7
		C862.4,547.5,861.7,557.8,861.3,565.6z"/>
	<path class="st6" d="M861.4,563.7c0,0.8-0.1,1.9-0.2,2.6c-0.3,3.5-1,10.6-2.3,17.5c-0.2,1.2-0.4,2.2-0.7,3.2c-1,0.9-2,1.4-2.9,1.4
		c-5.9-0.1-42.2-3.5-57.8-5.5c-15.6-2-13-25.5,2.7-24.5c10,0.6,49,4,58.6,5C859.8,563.5,860.7,563.4,861.4,563.7z"/>
	<path class="st3" d="M730.9,614.6c-2.3-0.2-1.8,5.3-0.1,5.3c4.3,0.2,85.7,4.6,88.7,4.5c2.6,0,4.2-2.3,0.5-2.7
		C819.3,621.7,733.6,614.9,730.9,614.6z"/>
	<path class="st2" d="M730.5,624.1c0,0-1.5,15.7-0.4,19.8c1.3,5.3,9.8,1.2,11.2,0.1c0.8-0.6,8.2-5.4,12.8-5s71.2,8.1,68.5-10.6
		C822.6,628.5,784.9,627.6,730.5,624.1z"/>
	<circle class="st3" cx="796.6" cy="570.5" r="3.5"/>
	<path class="st7" d="M829.1,566.3c-3.9-0.2-5.8,13.8,6.8,15.2c6.6,0.7,17.4,1.1,17.4,1.1c0.4-4,2-14.4,2-14.4
		C841.9,567.2,836.2,566.6,829.1,566.3z"/>
	<path class="st8" d="M832.7,581.6l-30.8-2.7c-0.7-0.1-1.3-0.7-1.2-1.4l0-0.2c0.1-0.7,0.7-1.3,1.4-1.2l30.8,2.7
		c0.7,0.1,1.3,0.7,1.2,1.4l0,0.2C834.1,581.1,833.4,581.7,832.7,581.6z"/>
	<path class="st8" d="M818.2,575.5l-15.1-1.3c-0.7-0.1-1.3-0.7-1.2-1.4l0-0.2c0.1-0.7,0.7-1.3,1.4-1.2l15.1,1.3
		c0.7,0.1,1.3,0.7,1.2,1.4l0,0.2C819.6,575,818.9,575.6,818.2,575.5z"/>
	<path class="st8" d="M810.3,569.8l-6.2-0.5c-0.7-0.1-1.3-0.7-1.2-1.4l0-0.2c0.1-0.7,0.7-1.3,1.4-1.2l6.2,0.5
		c0.7,0.1,1.3,0.7,1.2,1.4l0,0.2C811.7,569.3,811.1,569.8,810.3,569.8z"/>
	<path class="st2" d="M734.2,575.5c19.9,0.3,35.3,2.5,39.8,3c10.6,1.3,9.3,10.3,22.8,12c33.1,4.2,49.1,4,49.1,4
		c-1.1,5.3-20.4,11.4-23.6,23.1l-89.7-7.2C733.5,591,734.2,575.5,734.2,575.5z"/>
	<path class="st1" d="M847.5,544c0,0,6.7,8.3,6.6,12.4c0,0-50.5-4-53.8-4.3c-12.4-1.3-15,5.9-20.1,5.2c-4-0.6-44.2-3.6-46.7-3.6
		c0,0-0.4-9-0.9-11.7c0,0,89.1,9.4,91.8,9.5C842.3,552.6,846.4,545.9,847.5,544z"/>
</g>
<g>
</g>
<g>
</g>
<g>
</g>
<g>
</g>
<g>
</g>
</svg>
