<?xml version="1.0" encoding="UTF-8"?>
<svg id="Capa_1" data-name="Capa 1" xmlns="http://www.w3.org/2000/svg" viewBox="0 0 32 27.18">
  <defs>
    <style>
      .cls-1 {
        fill: #ff8e45;
      }

      .cls-2 {
        fill: #fff;
      }
    </style>
  </defs>
  <path class="cls-1" d="m12.34.17c-.99.11-1.37,1.9-1.6,3.31s-.83,8.95-.99,9.71-.19,1.13-1.57,1.7c-1.02.43-5.96,2.95-6.36,3.4-.13.15-.24,1.91-.28,2.23-.02.14-.32.05-1.24,1.37-.34.49-.31.82-.28,1.34s.22.93.44,1.09.81.36.83.91c0,.28.05.65.51.8s1.37.03,1.85,0c.44-.04.67-.11,1.01.07s.56.28.78-.04-.95-2.17,3.71-2.75c4.66-.58,4,1.09,4.13,2.06s.3,1.04.82,1.02,1.29-.27,2.02-.22,1.96.51,2.62-.24-2-4.61,3.12-5.17c5.11-.56,5,2.19,4.7,3.85s1.54.69,3.89.15c1.15-.26,1.07-.51,1.14-.95s.32-1.64.12-1.66-.38,0-.41-.15.53-1.95.64-2.44.02-.85-.22-1.12c-.33-.37-.47-.24-.85-1.35-.33-.98-.9-2.17-1.5-2.9s-.53-.7-1.04-1.24-1.65-1.59-2.27-2.71-2.97-6.02-4.87-7.83C19.29.58,17.77-.43,12.34.17Z"/>
  <circle class="cls-2" cx="22.64" cy="22.63" r="4.49"/>
  <circle class="cls-2" cx="9.44" cy="22.69" r="4.49"/>
  <polygon class="cls-1" points="9.44 20.17 10.09 22.06 12.02 22.05 10.48 23.19 11.04 25.08 9.44 23.98 7.85 25.08 8.42 23.22 6.86 22.05 8.81 22.04 9.44 20.17"/>
  <polygon class="cls-1" points="22.64 20.17 23.29 22.06 25.22 22.05 23.68 23.19 24.24 25.08 22.64 23.98 21.05 25.08 21.62 23.22 20.06 22.05 22.01 22.04 22.64 20.17"/>
</svg>