<?xml version="1.0" encoding="UTF-8"?>
<svg id="Capa_1" data-name="Capa 1" xmlns="http://www.w3.org/2000/svg" viewBox="0 0 29.84 25.65">
  <defs>
    <style>
      .cls-1 {
        fill: #ff8e45;
      }

      .cls-2 {
        fill: #fff;
      }

      .cls-3 {
        fill: none;
        stroke: #d8000b;
        stroke-miterlimit: 10;
        stroke-width: 2px;
      }
    </style>
  </defs>
  <path class="cls-3" d="m11.73,1.15c-.86.09-1.19,1.65-1.4,2.88s-.73,7.79-.86,8.45-.16.98-1.36,1.48c-.89.37-5.18,2.56-5.53,2.96-.12.13-.21,1.67-.25,1.94-.02.12-.28.04-1.08,1.19-.29.42-.27.71-.24,1.17s.19.81.38.95.71.32.72.79c0,.24.04.56.45.69s1.2.03,1.61,0c.38-.03.59-.09.88.06s.48.25.68-.04-.83-1.89,3.23-2.39c4.05-.5,3.48.95,3.6,1.79s.26.91.72.88,1.12-.24,1.76-.19,1.71.44,2.28-.21-1.74-4.01,2.71-4.5,4.35,1.91,4.09,3.35,1.34.6,3.39.13c1-.23.93-.44.99-.83s.27-1.42.11-1.45-.33,0-.36-.13.46-1.69.56-2.12.02-.74-.19-.98c-.29-.32-.41-.21-.74-1.17-.29-.85-.79-1.89-1.3-2.53s-.46-.61-.91-1.07-1.44-1.38-1.97-2.35-2.58-5.23-4.24-6.82c-1.66-1.58-2.98-2.45-7.72-1.93Z"/>
  <circle class="cls-3" cx="20.7" cy="20.69" r="3.91"/>
  <circle class="cls-3" cx="9.22" cy="20.74" r="3.91"/>
  <path class="cls-1" d="m11.73,1.15c-.86.09-1.19,1.65-1.4,2.88s-.73,7.79-.86,8.45-.16.98-1.36,1.48c-.89.37-5.18,2.56-5.53,2.96-.12.13-.21,1.67-.25,1.94-.02.12-.28.04-1.08,1.19-.29.42-.27.71-.24,1.17s.19.81.38.95.71.32.72.79c0,.24.04.56.45.69s1.2.03,1.61,0c.38-.03.59-.09.88.06s.48.25.68-.04-.83-1.89,3.23-2.39c4.05-.5,3.48.95,3.6,1.79s.26.91.72.88,1.12-.24,1.76-.19,1.71.44,2.28-.21-1.74-4.01,2.71-4.5,4.35,1.91,4.09,3.35,1.34.6,3.39.13c1-.23.93-.44.99-.83s.27-1.42.11-1.45-.33,0-.36-.13.46-1.69.56-2.12.02-.74-.19-.98c-.29-.32-.41-.21-.74-1.17-.29-.85-.79-1.89-1.3-2.53s-.46-.61-.91-1.07-1.44-1.38-1.97-2.35-2.58-5.23-4.24-6.82c-1.66-1.58-2.98-2.45-7.72-1.93Z"/>
  <circle class="cls-2" cx="20.7" cy="20.69" r="3.91"/>
  <circle class="cls-2" cx="9.22" cy="20.74" r="3.91"/>
  <polygon class="cls-1" points="9.22 18.55 9.78 20.19 11.46 20.18 10.12 21.18 10.6 22.82 9.22 21.86 7.83 22.82 8.32 21.21 6.97 20.18 8.67 20.18 9.22 18.55"/>
  <polygon class="cls-1" points="20.7 18.55 21.26 20.19 22.94 20.18 21.6 21.18 22.09 22.82 20.7 21.86 19.31 22.82 19.81 21.21 18.46 20.18 20.15 20.18 20.7 18.55"/>
</svg>