<?xml version="1.0" encoding="UTF-8"?>
<svg id="Capa_1" data-name="Capa 1" xmlns="http://www.w3.org/2000/svg" viewBox="0 0 921.28 734.72">
  <defs>
    <style>
      .cls-1 {
        fill: #151515;
        stroke: #000;
        stroke-miterlimit: 10;
        stroke-width: 4px;
      }
    </style>
  </defs>
  <path class="cls-1" d="m545.29,392.06c1.76-3.5,1.08-7.72-1.36-10.78-18.84-23.68-54.68,7.31-21.36,13.27,12.21,2.18,18.99.76,21.13-.55.64-.39,1.17-1.1,1.59-1.94Z"/>
  <path class="cls-1" d="m525.31,384.8c-1.46,1.69-4.01,1.87-5.7.4l-10.71-10.32s-2.84-2.4-2.84-8.69v-21.03h8.08v19.97c0,2.6,1.09,5.08,3,6.84l7.77,7.14c1.69,1.46,1.86,4.01.4,5.69Z"/>
  <path class="cls-1" d="m527.71,352.57h-36.81c-4.45,0-8.06-3.61-8.06-8.06v-15.66c0-4.45,3.61-8.06,8.06-8.06h36.81c2.77,0,5.35,1.42,6.82,3.77l4.93,7.83c1.65,2.62,1.65,5.96,0,8.59l-4.93,7.83c-1.48,2.34-4.05,3.77-6.82,3.77Z"/>
</svg>