<?xml version="1.0" encoding="UTF-8"?>
<svg id="Capa_1" data-name="Capa 1" xmlns="http://www.w3.org/2000/svg" viewBox="0 0 921.28 734.72">
  <defs>
    <style>
      .cls-1 {
        fill: #bfbfbf;
        stroke: #000;
        stroke-miterlimit: 10;
        stroke-width: 5px;
      }
    </style>
  </defs>
  <path class="cls-1" d="m541.86,663.23c3.15-9.42,4.74-24.45,3.5-48.38,0,0-135.22-10.59-138.6-10.28-.35,17-.72,42.24-.85,49.37-.04,2.45.07,4.74.36,6.87,1.5,11.02,7.86,7.53,22.44,7.91,22.09.59,27.1-1.48,51.05-1.42,11.7.02,28.09,5.1,40.38,5.45,7.95.23,16.77,5.23,21.71-9.52"/>
  <path class="cls-1" d="m547.76,666.79c-4.04-3.09-3.51-7.02-3.63-10.44,0,0-63.68-4.35-105.7-5.42-5.73-.15-23.57-1.41-23.57-26.51s2.33-50.77-8.17-50.77c3.48,42.96-12.32,91.43-14.79,101.1-.48,1.88,1.18,3.07,3.12,3.08,15.16.07,22.24-3.06,40.3-4.88,22.91-2.31,45.99-3.03,69.64.76,9.85,1.58,12.15,1.34,32.94,4.74,17.23,2.82,24.18-.95,9.87-11.66"/>
</svg>