<?xml version="1.0" encoding="UTF-8"?>
<svg id="Capa_1" data-name="Capa 1" xmlns="http://www.w3.org/2000/svg" viewBox="0 0 921.28 734.72">
  <defs>
    <style>
      .cls-1 {
        fill: #bfbfbf;
        stroke: #000;
        stroke-miterlimit: 10;
        stroke-width: 5px;
      }
    </style>
  </defs>
  <path class="cls-1" d="m877.07,577.66c-.04.84-.11,1.67-.19,2.5-.39,3.89-1.24,10.62-2.77,18.2-.26,1.3-.52,2.46-.81,3.54-2.14,8.09-5.58,10.56-20.62,20.33-5.76,3.74-8.29,7.18-8.1,19.02.35,21.88-43.07,17.91-71.21,16.36-11.98-.66-12.36,8.38-25.37,8.15-7.93-.14-8.41-3.22-8.32-18.57.06-9.48,6.41-61.54.1-100.98,0,0,83.7,9.49,91.76,10.19,32.91,2.85,29.23-12.88,25.41-17.71,21.21,20.87,20.53,31.15,20.11,38.97Z"/>
</svg>