<?xml version="1.0" encoding="UTF-8"?>
<svg id="Capa_1" data-name="Capa 1" xmlns="http://www.w3.org/2000/svg" viewBox="0 0 921.28 734.72">
  <defs>
    <style>
      .cls-1 {
        fill: #bfbfbf;
        stroke: #000;
        stroke-miterlimit: 10;
        stroke-width: 5px;
      }
    </style>
  </defs>
  <path class="cls-1" d="m877.18,577.66c-.04.84-.11,1.67-.19,2.5-.39,3.89-1.24,10.62-2.77,18.2-.26,1.3-.52,2.46-.81,3.54-2.14,8.09-5.58,10.56-20.62,20.33-5.76,3.74-11.81,15.99-8.98,27.49,4.09,16.66,7.38,14.13,9.39,17.94,7.36,13.9-60.67-9-79.72-10.05-11.98-.66-12.36,6.38-25.37,6.15-7.93-.14-8.41-1.22-8.32-16.57.06-9.48,6.41-61.54.1-100.98,0,0,83.7,9.49,91.76,10.19,32.91,2.85,29.23-12.88,25.41-17.71,21.21,20.87,20.53,31.15,20.11,38.97Z"/>
  <path class="cls-1" d="m735.27,669.37c1.3-10.94,1.23-12.76,1.34-15.13.18-3.96-2.37-7.1-3.04-11.46-1.1-7.23-.96-13.12-.73-16.74.59-9.38,7.73-10.27,14.33-9.99,45.04,1.9,71.63,35.61,86.96,44.22,8.72,4.9,14.81,5.88,19.06,6.4,3.73.46,2.42,4.93-.55,4.96-47.15.63-48.02,1.72-80.74.68-15.67-.5-19.52,3.66-30.46,3.95-7.52.2-6.17-6.88-6.17-6.88Z"/>
</svg>