<?xml version="1.0" encoding="UTF-8"?>
<svg id="Capa_1" data-name="Capa 1" xmlns="http://www.w3.org/2000/svg" viewBox="0 0 921.28 734.72">
  <defs>
    <style>
      .cls-1 {
        fill: #bfbfbf;
        stroke: #000;
        stroke-miterlimit: 10;
        stroke-width: 5px;
      }
    </style>
  </defs>
  <path class="cls-1" d="m877.07,577.66c-.04.84-.11,1.67-.19,2.5-.39,3.89-1.24,10.62-2.77,18.2-.26,1.3-.52,2.46-.81,3.54-2.14,8.09-5.58,10.56-20.62,20.33-5.76,3.74-8.29,7.18-8.1,19.02.35,21.88-43.07,17.91-71.21,16.36-11.98-.66-12.36,8.38-25.37,8.15-7.93-.14-8.41-3.22-8.32-18.57.06-9.48,6.41-61.54.1-100.98,0,0,83.7,9.49,91.76,10.19,32.91,2.85,29.23-12.88,25.41-17.71,21.21,20.87,20.53,31.15,20.11,38.97Z"/>
  <path class="cls-1" d="m747.33,586c-1.6-14.46,5.62-8,8.76-5.5,59.71,47.54,72.5,55.56,89.1,59.6,2.81.68,3.59,3.49,3.78,6.37.3,4.56,1.86,12.41,8.25,20.63,3.95,5.09-107.12-56.14-109.89-81.1Z"/>
  <path class="cls-1" d="m739.46,584.63l1.37,61.71c.24,8.04-1.14,9.96-5.96,14.11-.05.04-.09.08-.14.13l-4.36,4.39c-1.31,1.31-2.04,3.09-2.04,4.94v2.71c0,2.38,1.93,4.3,4.3,4.3h128.55c3.23,0,4.68-2.78,4.49-5.38,0,0-.04-3.93-6.25-6.6-61.19-26.21-112.75-83.87-112.75-83.87-2.95-2.27-7.22-.16-7.22,3.56Z"/>
</svg>