<?xml version="1.0" encoding="UTF-8"?>
<svg id="Capa_1" data-name="Capa 1" xmlns="http://www.w3.org/2000/svg" viewBox="0 0 921.28 734.72">
  <defs>
    <style>
      .cls-1 {
        fill: #bfbfbf;
        stroke: #000;
        stroke-miterlimit: 10;
        stroke-width: 5px;
      }
    </style>
  </defs>
  <path class="cls-1" d="m876.97,577.52c-.04.84-.11,1.67-.19,2.5-.39,3.89-.09,10.95-2.77,18.2-1.38,3.73-3.71,7.93-5.9,12.54-.23.48-3.85-.03-4.07.46-3.02,6.6-4.75,17.72-3.68,25.78.17,1.31,3.07-.09,3.45,1.26,2.27,8.12,7.2,6.82,6.04,15.92-2.77,21.71-108.92,10.67-121.93,10.44-7.93-.14-8.41-2.22-8.32-17.57.06-9.48,6.41-61.54.1-100.98,0,0,83.7,9.49,91.76,10.19,32.91,2.85,29.23-12.88,25.41-17.71,21.21,20.87,20.53,31.15,20.11,38.97Z"/>
</svg>