<?xml version="1.0" encoding="UTF-8"?>
<svg id="Capa_1" data-name="Capa 1" xmlns="http://www.w3.org/2000/svg" viewBox="0 0 921.28 734.72">
  <defs>
    <style>
      .cls-1 {
        fill: #bfbfbf;
        stroke: #000;
        stroke-miterlimit: 10;
        stroke-width: 5px;
      }
    </style>
  </defs>
  <path class="cls-1" d="m877.13,577.69c-.04.84-.11,1.67-.19,2.5-.39,3.89-.09,10.95-2.77,18.2-1.38,3.73-3.71,7.93-5.9,12.54-.23.48-3.85-.03-4.07.46-3.02,6.6-4.75,17.72-3.68,25.78.17,1.31,3.07-.09,3.45,1.26,2.27,8.12,7.2,6.82,6.04,15.92-2.77,21.71-108.92,10.67-121.93,10.44-7.93-.14-8.41-2.22-8.32-17.57.06-9.48,6.41-61.54.1-100.98,0,0,83.7,9.49,91.76,10.19,32.91,2.85,29.23-12.88,25.41-17.71,21.21,20.87,20.53,31.15,20.11,38.97Z"/>
  <path class="cls-1" d="m740.27,603.46c-1.21,9.59-3.03,42.32-1.6,54.73,1.65,14.4,15.71,17.7,22.84,17.82,4.28.07,112.02-3.98,120.03-3.8,10.46.24,11.11-10.22,4.69-11.91-3.04-.8-8.42-2.42-11.28-7.5-.75-1.33-2.12-2.2-3.65-2.22-16.02-.19-98.96-1.17-103.93-1.66-19.42-1.9-19.12-30.55-19.73-45.11-.25-5.91-6.54-6.93-7.38-.36Z"/>
</svg>