<?xml version="1.0" encoding="UTF-8"?>
<svg id="Capa_1" data-name="Capa 1" xmlns="http://www.w3.org/2000/svg" viewBox="0 0 921.28 734.72">
  <defs>
    <style>
      .cls-1 {
        fill: #bfbfbf;
      }

      .cls-1, .cls-2 {
        stroke: #000;
        stroke-miterlimit: 10;
        stroke-width: 5px;
      }

      .cls-2 {
        fill: #d9d9d9;
      }
    </style>
  </defs>
  <path class="cls-2" d="m795.24,448.37c7.71,5.49,11.44,7.39,16.28,10.69,4.67,3.19,6.55,8.59,8.47,15.21,3.05,10.53,7.19,19.21,10.29,47.44,1.13,10.3-44.57-80.13-35.04-73.35Z"/>
  <path class="cls-1" d="m831.54,556.4c-8.06-.7-91.76-10.19-91.76-10.19-25.04-104.23-210.06-101.21-194.15,68.57l-138.6-10.28c9.32-155.85-123.28-156.27-172.62-107.22l-54.25-6.12-62.38-7.03-4.09-.46h-.08s-23.9-2.7-23.9-2.7c10.65-28.18,18.17-48.84,25.85-66.07.27-.59.52-1.15.77-1.7.24-.55.47-1.1.74-1.63,11.23-21.78,49.8-48.68,92.91-123.23,1.69-2.92,3.43-5.99,5.18-9.22,1.56-2.82,3.14-5.78,4.76-8.85,29.05-55.29,57.51-112.13,93.68-167.45,1.99-3.06,4.02-6.11,6.06-9.16.07-.12.14-.23.23-.35C381.66,6.24,491.03,10.51,534.98,18.36c34.28,6.12,38.71,23.28,44.95,44.82.97,3.36,2,6.8,3.19,10.28,13.47,39.31,36.81,235.88,41.66,275.53.19,1.58.36,2.91.49,3.97,1.49,11.94,8.22,20.83,20.01,24.63,66.31,21.44,107.72,41.09,146.51,68.4,6.6,4.66,17.07,46.63,38.48,75.73,1.86,2.53,21.4,10.25,26.68,16.96,3.82,4.83,7.49,20.56-25.41,17.71Z"/>
</svg>