<?xml version="1.0" encoding="UTF-8"?>
<svg id="Capa_1" data-name="Capa 1" xmlns="http://www.w3.org/2000/svg" viewBox="0 0 921.28 734.72">
  <defs>
    <style>
      .cls-1 {
        fill: #bfbfbf;
      }

      .cls-1, .cls-2 {
        stroke: #000;
        stroke-miterlimit: 10;
        stroke-width: 5px;
      }

      .cls-2 {
        fill: #1d1a1a;
      }
    </style>
  </defs>
  <path class="cls-2" d="m33.87,148.58c.2,28.76,3.95,74.16,3.95,74.16l97.05,3.79-7.02-54.81c-2.3-11.15-11.45-23.56-23.53-24.63l-63.82-5.42c-3.6-.25-6.65,2.92-6.62,6.91Z"/>
  <path class="cls-1" d="m25.4,235.67c-.07-18.78,9.55-24.95,20.38-25.68,10.84-.74,57.57.06,65.96.65,69.97,4.94,85.76,127.01,90.14,141,4.39,13.99,4.13,15.09-4.64,20.62-8.77,5.52-25.83,12.49-43.86,18.04-13.16,4.05-27.01.44-37.27-5.53-17.69-10.3-62.93-42.73-73.42-53.74-8.77-9.2-14.45-26.14-14.97-38.66s-2.3-51.34-2.32-56.69Z"/>
  <path class="cls-2" d="m53.7,95.43l124.34,38.32c13.01,4.01,19.16,22.8,12.18,37.19l-16.55,34.11c-3.35,6.91-9.17,11.34-15.59,11.87l-90.15,7.43c-9.35.77-17.84-6.82-20.35-18.18l-17.65-79.86c-4.05-18.35,9.07-35.41,23.76-30.88Z"/>
</svg>