<?xml version="1.0" encoding="UTF-8"?>
<svg id="Capa_1" data-name="Capa 1" xmlns="http://www.w3.org/2000/svg" viewBox="0 0 921.28 734.72">
  <defs>
    <style>
      .cls-1, .cls-2 {
        fill: #bfbfbf;
      }

      .cls-2 {
        stroke: #000;
        stroke-miterlimit: 10;
        stroke-width: 5px;
      }
    </style>
  </defs>
  <path class="cls-2" d="m230.17,392.32c-.37,2.09-.77,4.25-1.2,6.47-4.39,22.69-11.39,51.69-17.2,85.99-.24,1.38-.47,2.76-.7,4.16-.28,1.68-.55,3.38-.82,5.09l-29.82-3.36c-1.86-3.68-7.28-37.14-13.57-57.81-4.71-15.51-13.35-16.1-18.6-17.53-5.9-1.59-22.89-2.25-31.88-2.49-2.41-.07-3.74-2.78-2.36-4.76,25.26-36.14,29.36-85.37,61.48-112.9,2.11-1.81,5.3-1.38,6.89.91,4.3,6.18,13.35,15.22,22.86.24,0,0,5.64,10.21,11.9,22.93,1.19,2.43,2.41,4.95,3.62,7.51,2.86,6.07,5.65,12.36,7.9,18.14,1.07,2.74,2.02,5.38,2.8,7.82.13.38.25.76.36,1.14,2.57,8.47,1.4,21.45-1.66,38.45Z"/>
  <path class="cls-2" d="m124.01,400.13c-13.66-82.86-72.1-134.03-93.21-162.54-1.67-2.26.16-5.41,2.95-5.09,5.35.61,12.76.95,19.79-.42,22.31-4.36,40.48-17.16,79.44-18.18,15.27-.4,15.27,8.17,19.24,25.43,5.76,25.05,23.05,74.82,55.99,95.77.89.57,1.02,1.81.18,2.44l-83.7,62.87c-.26.2-.63.04-.69-.28Z"/>
  <path class="cls-1" d="m125.5,394.05c.4,2.65,1.25,8.41,1.25,9.96s88.28-64.99,89.41-65.7.34,3.82-11.49-2.3l-79.17,58.05Z"/>
  <polygon class="cls-1" points="218.6 316.54 222.53 324.65 225.31 320.3 221.82 312.58 218.6 316.54"/>
  <path class="cls-1" d="m232.9,391.32s-1.19,6.77-1.46,7.99,4.51-.03,4.51-.03l1.63-9.39s-4.53.51-4.69,1.43Z"/>
  <path class="cls-1" d="m230.99,343.96c.79,2.03,2.85,7.93,3.25,9.13s4.01.71,5.03.58-2.09-9.98-2.9-11.67-5.93.6-5.39,1.96Z"/>
  <path class="cls-1" d="m214.42,484.06c-.27,1.74-.9,5.38-.99,5.92s2.77.81,3.66.76,1.68-6.6,2.54-8.47c1.17-2.54-5.09.97-5.21,1.78Z"/>
  <path class="cls-2" d="m44.6,237.96c1.43-67.14-19.81-113.49-22.46-123.7-1.96-7.55,1.12-13.87,8.4-13.87s55.12.06,69.73,0c10.26-.04,18.66,7.75,18.74,15.79.93,91.72,16.19,99.72,19.9,111.3"/>
</svg>